# Blender 5.0.1
# www.blender.org
mtllib cage.mtl
o Cube
v -1.000000 0.172186 1.301325
v -0.833942 1.088851 1.294150
v -1.000000 0.172186 -0.698675
v -0.703622 1.454746 -1.007174
v 1.000000 0.172186 1.301325
v 0.833942 1.088851 1.294150
v 1.000000 0.172186 -0.698675
v 0.703622 1.454746 -1.007174
v -1.000000 0.172186 0.301325
v -0.703622 1.504966 0.301325
v 1.000000 0.172186 0.301325
v 0.703622 1.504966 0.301325
v -1.000000 0.745309 1.333610
v -1.000000 0.777594 -0.867274
v 1.000000 0.777594 -0.867274
v 1.000000 0.745309 1.333610
v 1.000000 0.838576 0.301325
v -1.000000 0.838576 0.301325
v -0.833942 1.037258 -2.142093
v 0.833942 1.037258 -2.142093
v -1.000000 0.735920 -1.540304
v 1.000000 0.735920 -1.540304
v -1.000000 0.193285 -2.263742
v 1.000000 0.193285 -2.263742
v -1.000000 0.209582 -1.569317
v 1.000000 0.209582 -1.569317
v -1.000000 0.837747 2.621414
v 1.000000 0.837747 2.621414
v -1.000000 0.723786 2.022352
v 1.000000 0.723786 2.022352
v -1.000000 0.186714 2.737586
v 1.000000 0.186714 2.737586
v -1.000000 0.219740 2.171633
v 1.000000 0.219740 2.171633
vn -0.9144 0.4047 0.0108
vn -0.9587 0.2842 -0.0146
vn -0.9758 0.2187 0.0073
vn -0.0000 0.9826 0.1859
vn -0.0000 0.9600 0.2800
vn 0.9758 0.2187 0.0073
vn 0.9068 0.4208 0.0259
vn 0.9555 0.2946 0.0170
vn -0.0000 -1.0000 -0.0000
vn -0.0000 0.9825 0.1863
vn -0.0000 0.9799 -0.1993
vn 0.9735 0.2287 -0.0098
vn 0.9144 0.4047 0.0108
vn -0.9068 0.4208 0.0259
vn -0.9555 0.2946 0.0170
vn -1.0000 -0.0000 -0.0000
vn 1.0000 -0.0000 -0.0000
vn -0.0000 -0.9983 -0.0583
vn -0.0000 0.1757 0.9844
vn -0.9149 -0.4024 0.0339
vn -0.9567 -0.2846 0.0618
vn -0.9177 -0.3966 0.0246
vn -0.9161 0.4003 -0.0245
vn -0.9567 0.2846 -0.0618
vn -0.9885 -0.1210 0.0908
vn -0.9885 0.1210 -0.0908
vn 0.9739 0.2248 -0.0322
vn -0.9739 0.2248 -0.0322
vn -0.9979 0.0635 -0.0121
vn 0.9979 0.0635 -0.0121
vn -0.0000 -0.2840 -0.9588
vn -0.0000 -0.9995 -0.0312
vn -0.0000 -0.0562 0.9984
vn -0.0000 -0.2683 -0.9633
vn -0.0000 -0.9981 0.0618
vn -0.0000 0.9385 -0.3452
vn -0.0000 0.1427 -0.9898
vn -0.0000 0.9997 -0.0235
vn -0.0000 -0.0550 0.9985
vn 0.9171 0.3983 -0.0153
vn -0.9480 -0.2975 0.1126
vn -0.9480 0.2975 -0.1126
vt 0.625000 0.125000
vt 0.500000 0.250000
vt 0.500000 0.125000
vt 0.625000 1.000000
vt 0.625000 0.750000
vt 0.500000 0.625000
vt 0.500000 0.750000
vt 0.375000 0.625000
vt 0.125000 0.750000
vt 0.125000 0.625000
vt 0.875000 0.625000
vt 0.625000 0.625000
vt 0.875000 0.500000
vt 0.625000 0.500000
vt 0.375000 0.500000
vt 0.125000 0.500000
vt 0.500000 0.500000
vt 0.625000 0.000000
vt 0.500000 0.000000
vt 0.375000 0.125000
vt 0.375000 0.000000
vt 0.500000 1.000000
vt 0.375000 0.750000
vt 0.375000 0.250000
vt 0.625000 0.250000
vt 0.875000 0.750000
s 1
f 10/1/1 14/2/2 18/3/3
f 27/4/4 6/5/5 2/4/5
f 17/6/6 6/5/7 16/7/8
f 11/8/9 1/9/9 9/10/9
f 10/11/10 6/5/5 12/12/10
f 4/13/11 12/12/10 8/14/11
f 7/15/9 9/10/9 3/16/9
f 15/17/12 12/12/13 17/6/6
f 2/18/14 18/3/3 13/19/15
f 13/19/15 9/20/16 1/21/16
f 7/15/17 17/6/6 11/8/17
f 32/5/18 33/22/18 34/7/18
f 11/8/17 16/7/8 5/23/17
f 31/4/19 28/5/19 27/4/19
f 18/3/3 3/24/16 9/20/16
f 8/14/20 22/17/21 15/17/22
f 4/25/23 21/2/24 14/2/2
f 22/17/21 24/14/25 26/17/16
f 21/2/24 23/25/26 25/2/16
f 6/5/7 30/7/27 16/7/8
f 2/4/14 29/22/28 27/4/29
f 28/5/30 34/7/17 30/7/27
f 27/4/29 33/22/16 31/4/16
f 29/22/31 34/7/31 33/22/31
f 13/22/32 30/7/32 29/22/32
f 1/21/33 16/7/33 13/19/33
f 7/15/34 14/2/34 15/17/34
f 21/2/35 15/17/35 14/2/35
f 4/25/11 20/14/36 19/25/36
f 19/25/37 24/14/37 23/25/37
f 24/14/38 25/2/38 26/17/38
f 25/2/39 22/17/39 21/2/39
f 10/1/1 4/25/23 14/2/2
f 27/4/4 28/5/4 6/5/5
f 17/6/6 12/12/13 6/5/7
f 11/8/9 5/23/9 1/9/9
f 10/11/10 2/26/5 6/5/5
f 4/13/11 10/11/10 12/12/10
f 7/15/9 11/8/9 9/10/9
f 15/17/12 8/14/40 12/12/13
f 2/18/14 10/1/1 18/3/3
f 13/19/15 18/3/3 9/20/16
f 7/15/17 15/17/12 17/6/6
f 32/5/18 31/4/18 33/22/18
f 11/8/17 17/6/6 16/7/8
f 31/4/19 32/5/19 28/5/19
f 18/3/3 14/2/2 3/24/16
f 8/14/20 20/14/41 22/17/21
f 4/25/23 19/25/42 21/2/24
f 22/17/21 20/14/41 24/14/25
f 21/2/24 19/25/42 23/25/26
f 6/5/7 28/5/30 30/7/27
f 2/4/14 13/22/15 29/22/28
f 28/5/30 32/5/17 34/7/17
f 27/4/29 29/22/28 33/22/16
f 29/22/31 30/7/31 34/7/31
f 13/22/32 16/7/32 30/7/32
f 1/21/33 5/23/33 16/7/33
f 7/15/34 3/24/34 14/2/34
f 21/2/35 22/17/35 15/17/35
f 4/25/11 8/14/11 20/14/36
f 19/25/37 20/14/37 24/14/37
f 24/14/38 23/25/38 25/2/38
f 25/2/39 26/17/39 22/17/39
